<?xml version="1.0" encoding="UTF-8"?>
<svg xmlns="http://www.w3.org/2000/svg" width="104.336mm" height="55.672mm" viewBox="398.000000 273.000000 104.336060 55.672180">
    <path transform="translate(402.300446,275.308441)" style="stroke:#ff0000;stroke-width:0.05mm;fill:none" d="M10.319173,14.285309C10.319225,13.776154,10.047645,13.305664,9.606741,13.051117C9.165836,12.796509,8.6226,12.796509,8.18168,13.051025C7.74076,13.305603,7.469151,13.776062,7.469172,14.285309C7.46912,14.794434,7.740701,15.264923,8.181604,15.519501C8.622509,15.774109,9.165746,15.774109,9.606665,15.519562C10.047585,15.264984,10.319194,14.794525,10.319173,14.285309z"/>
    <path transform="translate(402.300446,275.308441)" style="stroke:#0000ff;stroke-width:0.05mm;fill:none" d="M5.319176,7.210846L1.264939,7.210846"/>
    <path transform="translate(402.300446,275.308441)" style="stroke:#0000ff;stroke-width:0.05mm;fill:none" d="M1.264939,7.210846L5.319229,14.304352"/>
    <path transform="translate(402.300446,275.308441)" style="stroke:#0000ff;stroke-width:0.05mm;fill:none" d="M5.319229,14.305328C5.330263,16.271881,6.927585,17.86026,8.894175,17.86026C10.860764,17.86026,12.458084,16.271881,12.469116,14.305328"/>
    <path transform="translate(402.300446,275.308441)" style="stroke:#0000ff;stroke-width:0.05mm;fill:none" d="M12.469116,14.304321L16.523407,7.210815"/>
    <path transform="translate(402.300446,275.308441)" style="stroke:#0000ff;stroke-width:0.05mm;fill:none" d="M16.523407,7.210846L12.46917,7.210846"/>
    <path transform="translate(402.300446,275.308441)" style="stroke:#0000ff;stroke-width:0.05mm;fill:none" d="M12.46917,7.210846L12.46917,3.710419"/>
    <path transform="translate(402.300446,275.308441)" style="stroke:#0000ff;stroke-width:0.05mm;fill:none" d="M12.46917,3.710419L5.319176,3.710419"/>
    <path transform="translate(402.300446,275.308441)" style="stroke:#0000ff;stroke-width:0.05mm;fill:none" d="M5.319176,3.710419L5.319176,7.210846"/>
    <path transform="translate(402.300446,275.308441)" style="stroke:#ff0000;stroke-width:0.05mm;fill:none" d="M22.727638,7.2854C22.727585,7.794556,22.999165,8.265045,23.440069,8.519592C23.880974,8.7742,24.42421,8.7742,24.865129,8.519684C25.306049,8.265106,25.57766,7.794647,25.577637,7.2854C25.57769,6.776276,25.30611,6.305786,24.865206,6.051208C24.424301,5.7966,23.881065,5.7966,23.440145,6.051147C22.999226,6.305725,22.727615,6.776184,22.727638,7.2854z"/>
    <path transform="translate(402.300446,275.308441)" style="stroke:#0000ff;stroke-width:0.05mm;fill:none" d="M27.727634,14.359863L31.781872,14.359863"/>
    <path transform="translate(402.300446,275.308441)" style="stroke:#0000ff;stroke-width:0.05mm;fill:none" d="M31.781872,14.359863L27.727581,7.266357"/>
    <path transform="translate(402.300446,275.308441)" style="stroke:#0000ff;stroke-width:0.05mm;fill:none" d="M27.727581,7.265381C27.716547,5.298828,26.119225,3.710449,24.152636,3.710449C22.186047,3.710449,20.588726,5.298828,20.577694,7.265381"/>
    <path transform="translate(402.300446,275.308441)" style="stroke:#0000ff;stroke-width:0.05mm;fill:none" d="M20.577694,7.266388L16.523403,14.359894"/>
    <path transform="translate(402.300446,275.308441)" style="stroke:#0000ff;stroke-width:0.05mm;fill:none" d="M16.523403,14.359863L20.577641,14.359863"/>
    <path transform="translate(402.300446,275.308441)" style="stroke:#0000ff;stroke-width:0.05mm;fill:none" d="M20.577641,14.359863L20.577641,17.860291"/>
    <path transform="translate(402.300446,275.308441)" style="stroke:#0000ff;stroke-width:0.05mm;fill:none" d="M20.577641,17.860291L27.727634,17.860291"/>
    <path transform="translate(402.300446,275.308441)" style="stroke:#0000ff;stroke-width:0.05mm;fill:none" d="M27.727634,17.860291L27.727634,14.359863"/>
    <path transform="translate(402.300446,275.308441)" style="stroke:#ff0000;stroke-width:0.05mm;fill:none" d="M40.836109,14.285309C40.836163,13.776154,40.564583,13.305664,40.123676,13.051117C39.682774,12.796509,39.139538,12.796509,38.698616,13.051025C38.257698,13.305603,37.986088,13.776062,37.986111,14.285309C37.986057,14.794434,38.257637,15.264923,38.698544,15.519501C39.139446,15.774109,39.682682,15.774109,40.123604,15.519562C40.564522,15.264984,40.836132,14.794525,40.836109,14.285309z"/>
    <path transform="translate(402.300446,275.308441)" style="stroke:#0000ff;stroke-width:0.05mm;fill:none" d="M35.836113,7.210846L31.781876,7.210846"/>
    <path transform="translate(402.300446,275.308441)" style="stroke:#0000ff;stroke-width:0.05mm;fill:none" d="M31.781876,7.210846L35.836166,14.304352"/>
    <path transform="translate(402.300446,275.308441)" style="stroke:#0000ff;stroke-width:0.05mm;fill:none" d="M35.836166,14.305328C35.847202,16.271881,37.444523,17.86026,39.411114,17.86026C41.377701,17.86026,42.975021,16.271881,42.986053,14.305328"/>
    <path transform="translate(402.300446,275.308441)" style="stroke:#0000ff;stroke-width:0.05mm;fill:none" d="M42.986053,14.304321L47.040344,7.210815"/>
    <path transform="translate(402.300446,275.308441)" style="stroke:#0000ff;stroke-width:0.05mm;fill:none" d="M47.040344,7.210846L42.986107,7.210846"/>
    <path transform="translate(402.300446,275.308441)" style="stroke:#0000ff;stroke-width:0.05mm;fill:none" d="M42.986107,7.210846L42.986107,3.710419"/>
    <path transform="translate(402.300446,275.308441)" style="stroke:#0000ff;stroke-width:0.05mm;fill:none" d="M42.986107,3.710419L35.836113,3.710419"/>
    <path transform="translate(402.300446,275.308441)" style="stroke:#0000ff;stroke-width:0.05mm;fill:none" d="M35.836113,3.710419L35.836113,7.210846"/>
    <path transform="translate(402.300446,275.308441)" style="stroke:#ff0000;stroke-width:0.05mm;fill:none" d="M53.244579,7.2854C53.244526,7.794556,53.516106,8.265045,53.957012,8.519592C54.397915,8.7742,54.941151,8.7742,55.382072,8.519684C55.82299,8.265106,56.094601,7.794647,56.094578,7.2854C56.094631,6.776276,55.823051,6.305786,55.382145,6.051208C54.941242,5.7966,54.398006,5.7966,53.957085,6.051147C53.516167,6.305725,53.244556,6.776184,53.244579,7.2854z"/>
    <path transform="translate(402.300446,275.308441)" style="stroke:#0000ff;stroke-width:0.05mm;fill:none" d="M58.244576,14.359863L62.298813,14.359863"/>
    <path transform="translate(402.300446,275.308441)" style="stroke:#0000ff;stroke-width:0.05mm;fill:none" d="M62.298813,14.359863L58.244522,7.266357"/>
    <path transform="translate(402.300446,275.308441)" style="stroke:#0000ff;stroke-width:0.05mm;fill:none" d="M58.244522,7.265381C58.233486,5.298828,56.636166,3.710449,54.669575,3.710449C52.702988,3.710449,51.105667,5.298828,51.094635,7.265381"/>
    <path transform="translate(402.300446,275.308441)" style="stroke:#0000ff;stroke-width:0.05mm;fill:none" d="M51.094635,7.266388L47.040344,14.359894"/>
    <path transform="translate(402.300446,275.308441)" style="stroke:#0000ff;stroke-width:0.05mm;fill:none" d="M47.040344,14.359863L51.094582,14.359863"/>
    <path transform="translate(402.300446,275.308441)" style="stroke:#0000ff;stroke-width:0.05mm;fill:none" d="M51.094582,14.359863L51.094582,17.860291"/>
    <path transform="translate(402.300446,275.308441)" style="stroke:#0000ff;stroke-width:0.05mm;fill:none" d="M51.094582,17.860291L58.244576,17.860291"/>
    <path transform="translate(402.300446,275.308441)" style="stroke:#0000ff;stroke-width:0.05mm;fill:none" d="M58.244576,17.860291L58.244576,14.359863"/>
    <path transform="translate(402.300446,275.308441)" style="stroke:#ff0000;stroke-width:0.05mm;fill:none" d="M9.124622,39.101563L4.274548,39.101563"/>
    <path transform="translate(402.300446,275.308441)" style="stroke:#ff0000;stroke-width:0.05mm;fill:none" d="M4.274544,39.101563L4.274544,34.249115"/>
    <path transform="translate(402.300446,275.308441)" style="stroke:#ff0000;stroke-width:0.05mm;fill:none" d="M4.274544,34.249115L9.124619,34.249115"/>
    <path transform="translate(402.300446,275.308441)" style="stroke:#ff0000;stroke-width:0.05mm;fill:none" d="M9.124622,34.249115L9.124622,39.101563"/>
    <path transform="translate(402.300446,275.308441)" style="stroke:#ff0000;stroke-width:0.05mm;fill:none" d="M27.124542,46.099823L20.274427,46.099823"/>
    <path transform="translate(402.300446,275.308441)" style="stroke:#ff0000;stroke-width:0.05mm;fill:none" d="M20.274427,46.099823L20.274427,43.250244"/>
    <path transform="translate(402.300446,275.308441)" style="stroke:#ff0000;stroke-width:0.05mm;fill:none" d="M20.274427,43.250244L27.124542,43.250244"/>
    <path transform="translate(402.300446,275.308441)" style="stroke:#ff0000;stroke-width:0.05mm;fill:none" d="M27.124542,43.250244L27.124542,46.099823"/>
    <path transform="translate(402.300446,275.308441)" style="stroke:#ff0000;stroke-width:0.05mm;fill:none" d="M75.124664,43.250244L75.124664,46.099823"/>
    <path transform="translate(402.300446,275.308441)" style="stroke:#ff0000;stroke-width:0.05mm;fill:none" d="M75.124664,46.099823L68.274551,46.099823"/>
    <path transform="translate(402.300446,275.308441)" style="stroke:#ff0000;stroke-width:0.05mm;fill:none" d="M68.274551,46.099823L68.274551,43.250244"/>
    <path transform="translate(402.300446,275.308441)" style="stroke:#ff0000;stroke-width:0.05mm;fill:none" d="M68.274551,43.250244L75.124664,43.250244"/>
    <path transform="translate(402.300446,275.308441)" style="stroke:#ff0000;stroke-width:0.05mm;fill:none" d="M27.124542,27.250916L27.124542,30.100464"/>
    <path transform="translate(402.300446,275.308441)" style="stroke:#ff0000;stroke-width:0.05mm;fill:none" d="M27.124542,30.100464L20.274427,30.100464"/>
    <path transform="translate(402.300446,275.308441)" style="stroke:#ff0000;stroke-width:0.05mm;fill:none" d="M20.274427,30.100464L20.274427,27.250916"/>
    <path transform="translate(402.300446,275.308441)" style="stroke:#ff0000;stroke-width:0.05mm;fill:none" d="M20.274427,27.250916L27.124542,27.250916"/>
    <path transform="translate(402.300446,275.308441)" style="stroke:#ff0000;stroke-width:0.05mm;fill:none" d="M75.124664,30.100464L68.274551,30.100464"/>
    <path transform="translate(402.300446,275.308441)" style="stroke:#ff0000;stroke-width:0.05mm;fill:none" d="M68.274551,30.100464L68.274551,27.250916"/>
    <path transform="translate(402.300446,275.308441)" style="stroke:#ff0000;stroke-width:0.05mm;fill:none" d="M68.274551,27.250916L75.124664,27.250916"/>
    <path transform="translate(402.300446,275.308441)" style="stroke:#ff0000;stroke-width:0.05mm;fill:none" d="M75.124664,27.250916L75.124664,30.100464"/>
    <path transform="translate(402.300446,275.308441)" style="stroke:#ff0000;stroke-width:0.05mm;fill:none" d="M86.274475,34.249115L91.124542,34.249115"/>
    <path transform="translate(402.300446,275.308441)" style="stroke:#ff0000;stroke-width:0.05mm;fill:none" d="M91.12455,34.249115L91.12455,39.101563"/>
    <path transform="translate(402.300446,275.308441)" style="stroke:#ff0000;stroke-width:0.05mm;fill:none" d="M91.12455,39.101563L86.274475,39.101563"/>
    <path transform="translate(402.300446,275.308441)" style="stroke:#ff0000;stroke-width:0.05mm;fill:none" d="M86.274475,39.101563L86.274475,34.249115"/>
    <path transform="translate(402.300446,275.308441)" style="stroke:#0000ff;stroke-width:0.05mm;fill:none" d="M12.699551,24.10025C5.760101,24.108032,0.138691,29.735748,0.13866,36.675171C0.13863,43.614624,5.759991,49.242371,12.699551,49.250244"/>
    <path transform="translate(402.300446,275.308441)" style="stroke:#0000ff;stroke-width:0.05mm;fill:none" d="M12.699669,49.251007L82.699425,49.251007"/>
    <path transform="translate(402.300446,275.308441)" style="stroke:#0000ff;stroke-width:0.05mm;fill:none" d="M82.699539,49.250275C89.638985,49.242493,95.260406,43.614807,95.260437,36.675354C95.260468,29.735901,89.639099,24.108154,82.699539,24.100281"/>
    <path transform="translate(402.300446,275.308441)" style="stroke:#0000ff;stroke-width:0.05mm;fill:none" d="M82.699425,24.099701L12.699669,24.099701"/>
    <path transform="translate(402.300446,275.308441)" style="stroke:#ff0000;stroke-width:0.05mm;fill:none" d="M73.230568,16.363373C73.230621,15.854248,72.959038,15.383759,72.518135,15.129181C72.077232,14.874573,71.533989,14.874573,71.093071,15.12912C70.652153,15.383698,70.380547,15.854126,70.380562,16.363373C70.380508,16.872528,70.652092,17.343018,71.092995,17.597565C71.533905,17.852173,72.077141,17.852173,72.518059,17.597626C72.958977,17.343079,73.230583,16.87262,73.230568,16.363373z"/>
    <path transform="translate(402.300446,275.308441)" style="stroke:#0000ff;stroke-width:0.05mm;fill:none" d="M76.880562,16.363373C76.880638,14.550201,75.913376,12.874756,74.343155,11.96817C72.772934,11.061554,70.838318,11.061554,69.268074,11.968109C67.69783,12.874664,66.730537,14.55011,66.730568,16.363373C66.730492,18.176544,67.697754,19.85199,69.267975,20.758575C70.838196,21.665222,72.772812,21.665222,74.343056,20.758667C75.9133,19.852081,76.880592,18.176636,76.880562,16.363373z"/>
    <path transform="translate(402.300446,275.308441)" style="stroke:#ff0000;stroke-width:0.05mm;fill:none" d="M85.238747,16.319824C85.2388,15.810699,84.967216,15.34021,84.526314,15.085632C84.085411,14.831024,83.542168,14.831024,83.10125,15.085571C82.660332,15.340149,82.388725,15.810577,82.388741,16.319824C82.388687,16.828979,82.660271,17.299469,83.101173,17.554016C83.542084,17.808624,84.08532,17.808624,84.526237,17.554077C84.967155,17.29953,85.238762,16.829071,85.238747,16.319824z"/>
    <path transform="translate(402.300446,275.308441)" style="stroke:#0000ff;stroke-width:0.05mm;fill:none" d="M88.888741,16.319824C88.888817,14.506653,87.921555,12.831207,86.351334,11.924622C84.781113,11.018005,82.846497,11.018005,81.276253,11.924561C79.706009,12.831116,78.738716,14.506561,78.738747,16.319824C78.73867,18.132996,79.705933,19.808441,81.276154,20.715027C82.846375,21.621674,84.780991,21.621674,86.351234,20.715118C87.921478,19.808533,88.888771,18.133087,88.888741,16.319824z"/>
    <path transform="translate(402.300446,275.308441)" style="stroke:#ff0000;stroke-width:0.05mm;fill:none" d="M73.230568,5.250824C73.230621,4.741699,72.959038,4.27121,72.518135,4.016632C72.077232,3.762024,71.533989,3.762024,71.093071,4.016571C70.652153,4.271149,70.380547,4.741577,70.380562,5.250824C70.380508,5.759979,70.652092,6.230469,71.092995,6.485016C71.533905,6.739624,72.077141,6.739624,72.518059,6.485077C72.958977,6.23053,73.230583,5.760071,73.230568,5.250824z"/>
    <path transform="translate(402.300446,275.308441)" style="stroke:#0000ff;stroke-width:0.05mm;fill:none" d="M76.880562,5.250824C76.880638,3.437653,75.913376,1.762207,74.343155,0.855621C72.772934,-0.050995,70.838318,-0.050995,69.268074,0.85556C67.69783,1.762115,66.730537,3.437561,66.730568,5.250824C66.730492,7.063995,67.697754,8.739441,69.267975,9.646027C70.838196,10.552673,72.772812,10.552673,74.343056,9.646118C75.9133,8.739532,76.880592,7.064087,76.880562,5.250824z"/>
    <path transform="translate(402.300446,275.308441)" style="stroke:#ff0000;stroke-width:0.05mm;fill:none" d="M85.238747,5.207275C85.2388,4.698151,84.967216,4.227661,84.526314,3.973083C84.085411,3.718475,83.542168,3.718475,83.10125,3.973022C82.660332,4.2276,82.388725,4.698029,82.388741,5.207275C82.388687,5.716431,82.660271,6.18692,83.101173,6.441467C83.542084,6.696075,84.08532,6.696075,84.526237,6.441528C84.967155,6.186981,85.238762,5.716522,85.238747,5.207275z"/>
    <path transform="translate(402.300446,275.308441)" style="stroke:#0000ff;stroke-width:0.05mm;fill:none" d="M88.888741,5.207275C88.888817,3.394104,87.921555,1.718658,86.351334,0.812073C84.781113,-0.094543,82.846497,-0.094543,81.276253,0.812012C79.706009,1.718567,78.738716,3.394012,78.738747,5.207275C78.73867,7.020447,79.705933,8.695892,81.276154,9.602478C82.846375,10.509125,84.780991,10.509125,86.351234,9.60257C87.921478,8.695984,88.888771,7.020538,88.888741,5.207275z"/>
    <path transform="translate(402.300446,275.308441)" style="stroke:#000000;stroke-width:0.05mm;fill:none" d="M32.068947,32.852982L31.552183,34.041534L30.983744,35.023384L31.397154,36.573673L32.068947,38.485695L31.552183,39.984306L30.880392,40.242687"/>
    <path transform="translate(402.300446,275.308441)" style="stroke:#000000;stroke-width:0.05mm;fill:none" d="M32.172295,40.397717L32.792412,39.002457L32.120621,36.883728L33.515884,36.93541L33.515884,36.108589L32.017273,36.315292L31.603861,35.230091L32.172302,34.299919L32.534035,32.852985"/>
    <path transform="translate(402.300446,275.308441)" style="stroke:#000000;stroke-width:0.05mm;fill:none" d="M37.071205,40.165176L38.43029,39.017963L38.895378,39.911964L39.996086,40.035988L40.083931,39.5709L39.277786,39.446877L38.006546,37.364323L37.541458,37.705387L38.130569,38.620056L37.159058,39.400368L36.435585,39.359028L35.887817,38.470196L36.011841,37.452171L37.200394,37.028427L37.112549,36.646023L35.205696,37.240299L35.123016,38.594215L35.758629,39.994644"/>
    <path transform="translate(402.300446,275.308441)" style="stroke:#000000;stroke-width:0.05mm;fill:none" d="M42.2285,37.240299L42.858948,38.346172L42.306015,39.214333L40.962433,39.136822L40.884918,37.317818L42.2285,37.240299z"/>
    <path transform="translate(402.300446,275.308441)" style="stroke:#000000;stroke-width:0.05mm;fill:none" d="M40.378487,33.219883L40.399162,39.999809"/>
    <path transform="translate(402.300446,275.308441)" style="stroke:#000000;stroke-width:0.05mm;fill:none" d="M42.197495,40.118664L43.355042,39.534721L43.551414,38.020607L42.600571,36.537498L40.977936,36.58918L40.957268,33.261227"/>
    <path transform="translate(402.300446,275.308441)" style="stroke:#000000;stroke-width:0.05mm;fill:none" d="M45.525475,32.966675L45.535805,39.694923L46.057739,39.141987L46.44014,39.157486L45.577148,40.433891"/>
    <path transform="translate(402.300446,275.308441)" style="stroke:#000000;stroke-width:0.05mm;fill:none" d="M44.714127,40.030815L44.71933,33.008011"/>
    <path transform="translate(402.300446,275.308441)" style="stroke:#000000;stroke-width:0.05mm;fill:none" d="M49.644043,40.165176L51.003128,39.017963L51.468216,39.911964L52.568924,40.035988L52.656776,39.5709L51.850624,39.446877L50.579391,37.364323L50.114304,37.705387L50.703415,38.620056L49.731903,39.400368L49.008438,39.359028L48.46067,38.470196L48.584694,37.452171L49.773247,37.028427L49.685394,36.646023L47.778542,37.240299L47.695862,38.594215L48.331482,39.994644"/>
    <path transform="translate(402.300446,275.308441)" style="stroke:#000000;stroke-width:0.05mm;fill:none" d="M54.801331,37.240299L55.431778,38.346172L54.878845,39.214333L53.535263,39.136822L53.457741,37.317818L54.801331,37.240299z"/>
    <path transform="translate(402.300446,275.308441)" style="stroke:#000000;stroke-width:0.05mm;fill:none" d="M52.951317,33.219883L52.971985,39.999809"/>
    <path transform="translate(402.300446,275.308441)" style="stroke:#000000;stroke-width:0.05mm;fill:none" d="M54.770317,40.118664L55.927864,39.534721L56.124237,38.020607L55.173393,36.537498L53.550758,36.58918L53.53009,33.261227"/>
    <path transform="translate(402.300446,275.308441)" style="stroke:#000000;stroke-width:0.05mm;fill:none" d="M58.20163,32.982178L58.217133,35.974236L60.289352,34.227577L61.519249,34.155228L58.294647,36.785549L58.268806,37.436668L61.297035,40.139336"/>
    <path transform="translate(402.300446,275.308441)" style="stroke:#000000;stroke-width:0.05mm;fill:none" d="M60.516724,40.185844L58.222298,38.030945L58.222298,40.06699"/>
    <path transform="translate(402.300446,275.308441)" style="stroke:#000000;stroke-width:0.05mm;fill:none" d="M57.648689,39.617409L57.612518,32.951172"/>
    <path transform="translate(402.300446,275.308441)" style="stroke:#000000;stroke-width:0.05mm;fill:none" d="M64.604317,40.139336L66.139099,39.002457L65.400131,38.604549L64.376938,39.570896L63.405426,39.514057L62.439079,38.54771L62.552765,37.803574L63.405426,37.235134L64.831688,37.291973L62.552765,38.490864L63.064362,39.00246L66.309631,37.121445L63.405426,36.268787L61.927483,37.576195L61.813797,38.604553L63.29174,40.02565"/>
    <rect transform="translate(450.16803,300.83609)" style="stroke:#a00000;stroke-width:0.05mm;fill:none" x="-52.168045" y="-27.83609" width="104.33609" height="55.67218"/>
</svg>
