<?xml version="1.0" encoding="UTF-8" standalone="no"?>
<svg
   width="104.336mm"
   height="55.672mm"
   viewBox="398.000000 273.000000 104.336060 55.672180"
   version="1.1"
   id="svg180"
   sodipodi:docname="board_full-moyen-with_tabs.svg"
   inkscape:version="1.1 (c68e22c387, 2021-05-23)"
   xmlns:inkscape="http://www.inkscape.org/namespaces/inkscape"
   xmlns:sodipodi="http://sodipodi.sourceforge.net/DTD/sodipodi-0.dtd"
   xmlns="http://www.w3.org/2000/svg"
   xmlns:svg="http://www.w3.org/2000/svg">
  <defs
     id="defs184" />
  <sodipodi:namedview
     id="namedview182"
     pagecolor="#ffffff"
     bordercolor="#666666"
     borderopacity="1.0"
     inkscape:pageshadow="2"
     inkscape:pageopacity="0.0"
     inkscape:pagecheckerboard="0"
     inkscape:document-units="mm"
     showgrid="false"
     inkscape:zoom="2.4713201"
     inkscape:cx="301.45832"
     inkscape:cy="151.1338"
     inkscape:window-width="1366"
     inkscape:window-height="705"
     inkscape:window-x="-8"
     inkscape:window-y="-8"
     inkscape:window-maximized="1"
     inkscape:current-layer="svg180" />
  <path
     transform="translate(402.300446,275.308441)"
     style="stroke:#ff0000;stroke-width:0.05mm;fill:none"
     d="M10.319173,14.285309C10.319225,13.776154,10.047645,13.305664,9.606741,13.051117C9.165836,12.796509,8.6226,12.796509,8.18168,13.051025C7.74076,13.305603,7.469151,13.776062,7.469172,14.285309C7.46912,14.794434,7.740701,15.264923,8.181604,15.519501C8.622509,15.774109,9.165746,15.774109,9.606665,15.519562C10.047585,15.264984,10.319194,14.794525,10.319173,14.285309z"
     id="path2" />
  <path
     transform="translate(402.300446,275.308441)"
     style="stroke:#0000ff;stroke-width:0.05mm;fill:none"
     d="M5.319176,7.210846L1.264939,7.210846"
     id="path4" />
  <path
     transform="translate(402.300446,275.308441)"
     style="stroke:#0000ff;stroke-width:0.05mm;fill:none"
     d="M1.264939,7.210846L5.319229,14.304352"
     id="path6" />
  <path
     transform="translate(402.300446,275.308441)"
     style="stroke:#0000ff;stroke-width:0.05mm;fill:none"
     d="M5.319229,14.305328C5.330263,16.271881,6.927585,17.86026,8.894175,17.86026C10.860764,17.86026,12.458084,16.271881,12.469116,14.305328"
     id="path8" />
  <path
     transform="translate(402.300446,275.308441)"
     style="stroke:#0000ff;stroke-width:0.05mm;fill:none"
     d="M12.469116,14.304321L16.523407,7.210815"
     id="path10" />
  <path
     transform="translate(402.300446,275.308441)"
     style="stroke:#0000ff;stroke-width:0.05mm;fill:none"
     d="M16.523407,7.210846L12.46917,7.210846"
     id="path12" />
  <path
     transform="translate(402.300446,275.308441)"
     style="stroke:#0000ff;stroke-width:0.05mm;fill:none"
     d="M12.46917,7.210846L12.46917,3.710419"
     id="path14" />
  <path
     transform="translate(402.300446,275.308441)"
     style="stroke:#0000ff;stroke-width:0.05mm;fill:none"
     d="M12.46917,3.710419L5.319176,3.710419"
     id="path16" />
  <path
     transform="translate(402.300446,275.308441)"
     style="stroke:#0000ff;stroke-width:0.05mm;fill:none"
     d="M5.319176,3.710419L5.319176,7.210846"
     id="path18" />
  <path
     transform="translate(402.300446,275.308441)"
     style="stroke:#ff0000;stroke-width:0.05mm;fill:none"
     d="M22.727638,7.2854C22.727585,7.794556,22.999165,8.265045,23.440069,8.519592C23.880974,8.7742,24.42421,8.7742,24.865129,8.519684C25.306049,8.265106,25.57766,7.794647,25.577637,7.2854C25.57769,6.776276,25.30611,6.305786,24.865206,6.051208C24.424301,5.7966,23.881065,5.7966,23.440145,6.051147C22.999226,6.305725,22.727615,6.776184,22.727638,7.2854z"
     id="path20" />
  <path
     transform="translate(402.300446,275.308441)"
     style="stroke:#0000ff;stroke-width:0.05mm;fill:none"
     d="M27.727634,14.359863L31.781872,14.359863"
     id="path22" />
  <path
     transform="translate(402.300446,275.308441)"
     style="stroke:#0000ff;stroke-width:0.05mm;fill:none"
     d="M31.781872,14.359863L27.727581,7.266357"
     id="path24" />
  <path
     transform="translate(402.300446,275.308441)"
     style="stroke:#0000ff;stroke-width:0.05mm;fill:none"
     d="M27.727581,7.265381C27.716547,5.298828,26.119225,3.710449,24.152636,3.710449C22.186047,3.710449,20.588726,5.298828,20.577694,7.265381"
     id="path26" />
  <path
     transform="translate(402.300446,275.308441)"
     style="stroke:#0000ff;stroke-width:0.05mm;fill:none"
     d="M20.577694,7.266388L16.523403,14.359894"
     id="path28" />
  <path
     transform="translate(402.300446,275.308441)"
     style="stroke:#0000ff;stroke-width:0.05mm;fill:none"
     d="M16.523403,14.359863L20.577641,14.359863"
     id="path30" />
  <path
     transform="translate(402.300446,275.308441)"
     style="stroke:#0000ff;stroke-width:0.05mm;fill:none"
     d="M20.577641,14.359863L20.577641,17.860291"
     id="path32" />
  <path
     transform="translate(402.300446,275.308441)"
     style="stroke:#0000ff;stroke-width:0.05mm;fill:none"
     d="M20.577641,17.860291L27.727634,17.860291"
     id="path34" />
  <path
     transform="translate(402.300446,275.308441)"
     style="stroke:#0000ff;stroke-width:0.05mm;fill:none"
     d="M27.727634,17.860291L27.727634,14.359863"
     id="path36" />
  <path
     transform="translate(402.300446,275.308441)"
     style="stroke:#ff0000;stroke-width:0.05mm;fill:none"
     d="M40.836109,14.285309C40.836163,13.776154,40.564583,13.305664,40.123676,13.051117C39.682774,12.796509,39.139538,12.796509,38.698616,13.051025C38.257698,13.305603,37.986088,13.776062,37.986111,14.285309C37.986057,14.794434,38.257637,15.264923,38.698544,15.519501C39.139446,15.774109,39.682682,15.774109,40.123604,15.519562C40.564522,15.264984,40.836132,14.794525,40.836109,14.285309z"
     id="path38" />
  <path
     transform="translate(402.300446,275.308441)"
     style="stroke:#0000ff;stroke-width:0.05mm;fill:none"
     d="M35.836113,7.210846L31.781876,7.210846"
     id="path40" />
  <path
     transform="translate(402.300446,275.308441)"
     style="stroke:#0000ff;stroke-width:0.05mm;fill:none"
     d="M31.781876,7.210846L35.836166,14.304352"
     id="path42" />
  <path
     transform="translate(402.300446,275.308441)"
     style="stroke:#0000ff;stroke-width:0.05mm;fill:none"
     d="M35.836166,14.305328C35.847202,16.271881,37.444523,17.86026,39.411114,17.86026C41.377701,17.86026,42.975021,16.271881,42.986053,14.305328"
     id="path44" />
  <path
     transform="translate(402.300446,275.308441)"
     style="stroke:#0000ff;stroke-width:0.05mm;fill:none"
     d="M42.986053,14.304321L47.040344,7.210815"
     id="path46" />
  <path
     transform="translate(402.300446,275.308441)"
     style="stroke:#0000ff;stroke-width:0.05mm;fill:none"
     d="M47.040344,7.210846L42.986107,7.210846"
     id="path48" />
  <path
     transform="translate(402.300446,275.308441)"
     style="stroke:#0000ff;stroke-width:0.05mm;fill:none"
     d="M42.986107,7.210846L42.986107,3.710419"
     id="path50" />
  <path
     transform="translate(402.300446,275.308441)"
     style="stroke:#0000ff;stroke-width:0.05mm;fill:none"
     d="M42.986107,3.710419L35.836113,3.710419"
     id="path52" />
  <path
     transform="translate(402.300446,275.308441)"
     style="stroke:#0000ff;stroke-width:0.05mm;fill:none"
     d="M35.836113,3.710419L35.836113,7.210846"
     id="path54" />
  <path
     transform="translate(402.300446,275.308441)"
     style="stroke:#ff0000;stroke-width:0.05mm;fill:none"
     d="M53.244579,7.2854C53.244526,7.794556,53.516106,8.265045,53.957012,8.519592C54.397915,8.7742,54.941151,8.7742,55.382072,8.519684C55.82299,8.265106,56.094601,7.794647,56.094578,7.2854C56.094631,6.776276,55.823051,6.305786,55.382145,6.051208C54.941242,5.7966,54.398006,5.7966,53.957085,6.051147C53.516167,6.305725,53.244556,6.776184,53.244579,7.2854z"
     id="path56" />
  <path
     transform="translate(402.300446,275.308441)"
     style="stroke:#0000ff;stroke-width:0.05mm;fill:none"
     d="M58.244576,14.359863L62.298813,14.359863"
     id="path58" />
  <path
     transform="translate(402.300446,275.308441)"
     style="stroke:#0000ff;stroke-width:0.05mm;fill:none"
     d="M62.298813,14.359863L58.244522,7.266357"
     id="path60" />
  <path
     transform="translate(402.300446,275.308441)"
     style="stroke:#0000ff;stroke-width:0.05mm;fill:none"
     d="M58.244522,7.265381C58.233486,5.298828,56.636166,3.710449,54.669575,3.710449C52.702988,3.710449,51.105667,5.298828,51.094635,7.265381"
     id="path62" />
  <path
     transform="translate(402.300446,275.308441)"
     style="stroke:#0000ff;stroke-width:0.05mm;fill:none"
     d="M51.094635,7.266388L47.040344,14.359894"
     id="path64" />
  <path
     transform="translate(402.300446,275.308441)"
     style="stroke:#0000ff;stroke-width:0.05mm;fill:none"
     d="M47.040344,14.359863L51.094582,14.359863"
     id="path66" />
  <path
     transform="translate(402.300446,275.308441)"
     style="stroke:#0000ff;stroke-width:0.05mm;fill:none"
     d="M51.094582,14.359863L51.094582,17.860291"
     id="path68" />
  <path
     transform="translate(402.300446,275.308441)"
     style="stroke:#0000ff;stroke-width:0.05mm;fill:none"
     d="M51.094582,17.860291L58.244576,17.860291"
     id="path70" />
  <path
     transform="translate(402.300446,275.308441)"
     style="stroke:#0000ff;stroke-width:0.05mm;fill:none"
     d="M58.244576,17.860291L58.244576,14.359863"
     id="path72" />
  <path
     transform="translate(402.300446,275.308441)"
     style="stroke:#ff0000;stroke-width:0.05mm;fill:none"
     d="M9.124622,39.101563L4.274548,39.101563"
     id="path74" />
  <path
     transform="translate(402.300446,275.308441)"
     style="stroke:#ff0000;stroke-width:0.05mm;fill:none"
     d="M4.274544,39.101563L4.274544,34.249115"
     id="path76" />
  <path
     transform="translate(402.300446,275.308441)"
     style="stroke:#ff0000;stroke-width:0.05mm;fill:none"
     d="M4.274544,34.249115L9.124619,34.249115"
     id="path78" />
  <path
     transform="translate(402.300446,275.308441)"
     style="stroke:#ff0000;stroke-width:0.05mm;fill:none"
     d="M9.124622,34.249115L9.124622,39.101563"
     id="path80" />
  <path
     transform="translate(402.300446,275.308441)"
     style="stroke:#ff0000;stroke-width:0.05mm;fill:none"
     d="M27.124542,46.099823L20.274427,46.099823"
     id="path82" />
  <path
     transform="translate(402.300446,275.308441)"
     style="stroke:#ff0000;stroke-width:0.05mm;fill:none"
     d="M20.274427,46.099823L20.274427,43.250244"
     id="path84" />
  <path
     transform="translate(402.300446,275.308441)"
     style="stroke:#ff0000;stroke-width:0.05mm;fill:none"
     d="M20.274427,43.250244L27.124542,43.250244"
     id="path86" />
  <path
     transform="translate(402.300446,275.308441)"
     style="stroke:#ff0000;stroke-width:0.05mm;fill:none"
     d="M27.124542,43.250244L27.124542,46.099823"
     id="path88" />
  <path
     transform="translate(402.300446,275.308441)"
     style="stroke:#ff0000;stroke-width:0.05mm;fill:none"
     d="M27.124542,27.250916L27.124542,30.100464"
     id="path98" />
  <path
     transform="translate(402.300446,275.308441)"
     style="stroke:#ff0000;stroke-width:0.05mm;fill:none"
     d="M27.124542,30.100464L20.274427,30.100464"
     id="path100" />
  <path
     transform="translate(402.300446,275.308441)"
     style="stroke:#ff0000;stroke-width:0.05mm;fill:none"
     d="M20.274427,30.100464L20.274427,27.250916"
     id="path102" />
  <path
     transform="translate(402.300446,275.308441)"
     style="stroke:#ff0000;stroke-width:0.05mm;fill:none"
     d="M20.274427,27.250916L27.124542,27.250916"
     id="path104" />
  <path
     transform="translate(402.300446,275.308441)"
     style="stroke:#0000ff;stroke-width:0.05mm;fill:none"
     d="M12.699551,24.10025C5.760101,24.108032,0.138691,29.735748,0.13866,36.675171C0.13863,43.614624,5.759991,49.242371,12.699551,49.250244"
     id="path122" />
  <path
     style="fill:none;stroke:#0000ff;stroke-width:0.039286mm"
     d="m 415.00012,324.55945 h 55.00017"
     id="path124" />
  <g
     id="g1014"
     transform="translate(-14.999954)">
    <path
       transform="translate(402.30045,275.30844)"
       style="fill:none;stroke:#ff0000;stroke-width:0.05mm"
       d="m 75.124664,43.250244 v 2.849579"
       id="path90" />
    <path
       transform="translate(402.30045,275.30844)"
       style="fill:none;stroke:#ff0000;stroke-width:0.05mm"
       d="M 75.124664,46.099823 H 68.274551"
       id="path92" />
    <path
       transform="translate(402.30045,275.30844)"
       style="fill:none;stroke:#ff0000;stroke-width:0.05mm"
       d="M 68.274551,46.099823 V 43.250244"
       id="path94" />
    <path
       style="fill:none;stroke:#ff0000;stroke-width:0.05mm"
       d="m 68.274551,43.250244 h 6.850113"
       id="path96"
       transform="translate(402.30045,275.30844)" />
    <path
       style="fill:none;stroke:#ff0000;stroke-width:0.05mm"
       d="M 75.124664,30.100464 H 68.274551"
       id="path106"
       transform="translate(402.30045,275.30844)" />
    <path
       transform="translate(402.30045,275.30844)"
       style="fill:none;stroke:#ff0000;stroke-width:0.05mm"
       d="M 68.274551,30.100464 V 27.250916"
       id="path108" />
    <path
       transform="translate(402.30045,275.30844)"
       style="fill:none;stroke:#ff0000;stroke-width:0.05mm"
       d="m 68.274551,27.250916 h 6.850113"
       id="path110" />
    <path
       transform="translate(402.30045,275.30844)"
       style="fill:none;stroke:#ff0000;stroke-width:0.05mm"
       d="m 75.124664,27.250916 v 2.849548"
       id="path112" />
    <path
       transform="translate(402.30045,275.30844)"
       style="fill:none;stroke:#ff0000;stroke-width:0.05mm"
       d="m 86.274475,34.249115 h 4.850067"
       id="path114" />
    <path
       transform="translate(402.30045,275.30844)"
       style="fill:none;stroke:#ff0000;stroke-width:0.05mm"
       d="m 91.12455,34.249115 v 4.852448"
       id="path116" />
    <path
       transform="translate(402.30045,275.30844)"
       style="fill:none;stroke:#ff0000;stroke-width:0.05mm"
       d="M 91.12455,39.101563 H 86.274475"
       id="path118" />
    <path
       style="fill:none;stroke:#ff0000;stroke-width:0.05mm"
       d="M 86.274475,39.101563 V 34.249115"
       id="path120"
       transform="translate(402.30045,275.30844)" />
    <path
       style="fill:none;stroke:#0000ff;stroke-width:0.05mm"
       d="m 82.699539,49.250275 c 6.939446,-0.0078 12.560867,-5.635468 12.560898,-12.574921 3.1e-5,-6.939453 -5.621338,-12.5672 -12.560898,-12.575073"
       id="path126"
       transform="translate(402.30045,275.30844)" />
  </g>
  <path
     style="fill:none;stroke:#0000ff;stroke-width:0.039286mm"
     d="M 470.00029,299.40814 H 415.00012"
     id="path128" />
  <path
     transform="translate(402.300446,275.308441)"
     style="stroke:#ff0000;stroke-width:0.05mm;fill:none"
     d="M73.230568,16.363373C73.230621,15.854248,72.959038,15.383759,72.518135,15.129181C72.077232,14.874573,71.533989,14.874573,71.093071,15.12912C70.652153,15.383698,70.380547,15.854126,70.380562,16.363373C70.380508,16.872528,70.652092,17.343018,71.092995,17.597565C71.533905,17.852173,72.077141,17.852173,72.518059,17.597626C72.958977,17.343079,73.230583,16.87262,73.230568,16.363373z"
     id="path130" />
  <path
     transform="translate(402.300446,275.308441)"
     style="stroke:#0000ff;stroke-width:0.05mm;fill:none"
     d="M76.880562,16.363373C76.880638,14.550201,75.913376,12.874756,74.343155,11.96817C72.772934,11.061554,70.838318,11.061554,69.268074,11.968109C67.69783,12.874664,66.730537,14.55011,66.730568,16.363373C66.730492,18.176544,67.697754,19.85199,69.267975,20.758575C70.838196,21.665222,72.772812,21.665222,74.343056,20.758667C75.9133,19.852081,76.880592,18.176636,76.880562,16.363373z"
     id="path132" />
  <path
     transform="translate(402.300446,275.308441)"
     style="stroke:#ff0000;stroke-width:0.05mm;fill:none"
     d="M85.238747,16.319824C85.2388,15.810699,84.967216,15.34021,84.526314,15.085632C84.085411,14.831024,83.542168,14.831024,83.10125,15.085571C82.660332,15.340149,82.388725,15.810577,82.388741,16.319824C82.388687,16.828979,82.660271,17.299469,83.101173,17.554016C83.542084,17.808624,84.08532,17.808624,84.526237,17.554077C84.967155,17.29953,85.238762,16.829071,85.238747,16.319824z"
     id="path134" />
  <path
     transform="translate(402.300446,275.308441)"
     style="stroke:#0000ff;stroke-width:0.05mm;fill:none"
     d="M88.888741,16.319824C88.888817,14.506653,87.921555,12.831207,86.351334,11.924622C84.781113,11.018005,82.846497,11.018005,81.276253,11.924561C79.706009,12.831116,78.738716,14.506561,78.738747,16.319824C78.73867,18.132996,79.705933,19.808441,81.276154,20.715027C82.846375,21.621674,84.780991,21.621674,86.351234,20.715118C87.921478,19.808533,88.888771,18.133087,88.888741,16.319824z"
     id="path136" />
  <path
     transform="translate(402.300446,275.308441)"
     style="stroke:#ff0000;stroke-width:0.05mm;fill:none"
     d="M73.230568,5.250824C73.230621,4.741699,72.959038,4.27121,72.518135,4.016632C72.077232,3.762024,71.533989,3.762024,71.093071,4.016571C70.652153,4.271149,70.380547,4.741577,70.380562,5.250824C70.380508,5.759979,70.652092,6.230469,71.092995,6.485016C71.533905,6.739624,72.077141,6.739624,72.518059,6.485077C72.958977,6.23053,73.230583,5.760071,73.230568,5.250824z"
     id="path138" />
  <path
     transform="translate(402.300446,275.308441)"
     style="stroke:#0000ff;stroke-width:0.05mm;fill:none"
     d="M76.880562,5.250824C76.880638,3.437653,75.913376,1.762207,74.343155,0.855621C72.772934,-0.050995,70.838318,-0.050995,69.268074,0.85556C67.69783,1.762115,66.730537,3.437561,66.730568,5.250824C66.730492,7.063995,67.697754,8.739441,69.267975,9.646027C70.838196,10.552673,72.772812,10.552673,74.343056,9.646118C75.9133,8.739532,76.880592,7.064087,76.880562,5.250824z"
     id="path140" />
  <path
     transform="translate(402.300446,275.308441)"
     style="stroke:#ff0000;stroke-width:0.05mm;fill:none"
     d="M85.238747,5.207275C85.2388,4.698151,84.967216,4.227661,84.526314,3.973083C84.085411,3.718475,83.542168,3.718475,83.10125,3.973022C82.660332,4.2276,82.388725,4.698029,82.388741,5.207275C82.388687,5.716431,82.660271,6.18692,83.101173,6.441467C83.542084,6.696075,84.08532,6.696075,84.526237,6.441528C84.967155,6.186981,85.238762,5.716522,85.238747,5.207275z"
     id="path142" />
  <path
     transform="translate(402.300446,275.308441)"
     style="stroke:#0000ff;stroke-width:0.05mm;fill:none"
     d="M88.888741,5.207275C88.888817,3.394104,87.921555,1.718658,86.351334,0.812073C84.781113,-0.094543,82.846497,-0.094543,81.276253,0.812012C79.706009,1.718567,78.738716,3.394012,78.738747,5.207275C78.73867,7.020447,79.705933,8.695892,81.276154,9.602478C82.846375,10.509125,84.780991,10.509125,86.351234,9.60257C87.921478,8.695984,88.888771,7.020538,88.888741,5.207275z"
     id="path144" />
  <g
     id="g1032"
     transform="translate(-8.4666943)">
    <path
       transform="translate(402.30045,275.30844)"
       style="fill:none;stroke:#000000;stroke-width:0.05mm"
       d="m 32.068947,32.852982 -0.516764,1.188552 -0.568439,0.98185 0.41341,1.550289 0.671793,1.912022 -0.516764,1.498611 -0.671791,0.258381"
       id="path146" />
    <path
       transform="translate(402.30045,275.30844)"
       style="fill:none;stroke:#000000;stroke-width:0.05mm"
       d="m 32.172295,40.397717 0.620117,-1.39526 -0.671791,-2.118729 1.395263,0.05168 v -0.826821 l -1.498611,0.206703 -0.413412,-1.085201 0.568441,-0.930172 0.361733,-1.446934"
       id="path148" />
    <path
       transform="translate(402.30045,275.30844)"
       style="fill:none;stroke:#000000;stroke-width:0.05mm"
       d="m 37.071205,40.165176 1.359085,-1.147213 0.465088,0.894001 1.100708,0.124024 0.08785,-0.465088 -0.806145,-0.124023 -1.27124,-2.082554 -0.465088,0.341064 0.589111,0.914669 -0.971511,0.780312 -0.723473,-0.04134 -0.547768,-0.888832 0.124024,-1.018025 1.188553,-0.423744 -0.08785,-0.382404 -1.906853,0.594276 -0.08268,1.353916 0.635613,1.400429"
       id="path150" />
    <path
       transform="translate(402.30045,275.30844)"
       style="fill:none;stroke:#000000;stroke-width:0.05mm"
       d="m 42.2285,37.240299 0.630448,1.105873 -0.552933,0.868161 -1.343582,-0.07751 -0.07751,-1.819004 z"
       id="path152" />
    <path
       transform="translate(402.30045,275.30844)"
       style="fill:none;stroke:#000000;stroke-width:0.05mm"
       d="m 40.378487,33.219883 0.02067,6.779926"
       id="path154" />
    <path
       transform="translate(402.30045,275.30844)"
       style="fill:none;stroke:#000000;stroke-width:0.05mm"
       d="m 42.197495,40.118664 1.157547,-0.583943 0.196372,-1.514114 -0.950843,-1.483109 -1.622635,0.05168 -0.02067,-3.327953"
       id="path156" />
    <path
       transform="translate(402.30045,275.30844)"
       style="fill:none;stroke:#000000;stroke-width:0.05mm"
       d="m 45.525475,32.966675 0.01033,6.728248 0.521934,-0.552936 0.382401,0.0155 -0.862992,1.276405"
       id="path158" />
    <path
       transform="translate(402.30045,275.30844)"
       style="fill:none;stroke:#000000;stroke-width:0.05mm"
       d="m 44.714127,40.030815 0.0052,-7.022804"
       id="path160" />
    <path
       transform="translate(402.30045,275.30844)"
       style="fill:none;stroke:#000000;stroke-width:0.05mm"
       d="m 49.644043,40.165176 1.359085,-1.147213 0.465088,0.894001 1.100708,0.124024 0.08785,-0.465088 -0.806152,-0.124023 -1.271233,-2.082554 -0.465087,0.341064 0.589111,0.914669 -0.971512,0.780312 -0.723465,-0.04134 -0.547768,-0.888832 0.124024,-1.018025 1.188553,-0.423744 -0.08785,-0.382404 -1.906852,0.594276 -0.08268,1.353916 0.63562,1.400429"
       id="path162" />
    <path
       transform="translate(402.30045,275.30844)"
       style="fill:none;stroke:#000000;stroke-width:0.05mm"
       d="m 54.801331,37.240299 0.630447,1.105873 -0.552933,0.868161 -1.343582,-0.07751 -0.07752,-1.819004 z"
       id="path164" />
    <path
       transform="translate(402.30045,275.30844)"
       style="fill:none;stroke:#000000;stroke-width:0.05mm"
       d="m 52.951317,33.219883 0.02067,6.779926"
       id="path166" />
    <path
       transform="translate(402.30045,275.30844)"
       style="fill:none;stroke:#000000;stroke-width:0.05mm"
       d="m 54.770317,40.118664 1.157547,-0.583943 0.196373,-1.514114 -0.950844,-1.483109 -1.622635,0.05168 -0.02067,-3.327953"
       id="path168" />
    <path
       transform="translate(402.30045,275.30844)"
       style="fill:none;stroke:#000000;stroke-width:0.05mm"
       d="m 58.20163,32.982178 0.0155,2.992058 2.072219,-1.746659 1.229897,-0.07235 -3.224602,2.630321 -0.02584,0.651119 3.028229,2.702668"
       id="path170" />
    <path
       transform="translate(402.30045,275.30844)"
       style="fill:none;stroke:#000000;stroke-width:0.05mm"
       d="M 60.516724,40.185844 58.222298,38.030945 V 40.06699"
       id="path172" />
    <path
       transform="translate(402.30045,275.30844)"
       style="fill:none;stroke:#000000;stroke-width:0.05mm"
       d="m 57.648689,39.617409 -0.03617,-6.666237"
       id="path174" />
    <path
       transform="translate(402.30045,275.30844)"
       style="fill:none;stroke:#000000;stroke-width:0.05mm"
       d="m 64.604317,40.139336 1.534782,-1.136879 -0.738968,-0.397908 -1.023193,0.966347 -0.971512,-0.05684 -0.966347,-0.966347 0.113686,-0.744136 0.852661,-0.56844 1.426262,0.05684 -2.278923,1.198891 0.511597,0.511596 3.245269,-1.881015 -2.904205,-0.852658 -1.477943,1.307408 -0.113686,1.028358 1.477943,1.421097"
       id="path176" />
  </g>
  <rect
     transform="translate(450.16803,300.83609)"
     style="stroke:#a00000;stroke-width:0.05mm;fill:none"
     x="-52.168045"
     y="-27.83609"
     width="104.33609"
     height="55.67218"
     id="rect178" />
</svg>
